<?xml version="1.0" encoding="UTF-8" standalone="no"?>
<!-- Created with Inkscape (http://www.inkscape.org/) -->

<svg
   xmlns:dc="http://purl.org/dc/elements/1.1/"
   xmlns:cc="http://creativecommons.org/ns#"
   xmlns:rdf="http://www.w3.org/1999/02/22-rdf-syntax-ns#"
   xmlns:svg="http://www.w3.org/2000/svg"
   xmlns="http://www.w3.org/2000/svg"
   xmlns:sodipodi="http://sodipodi.sourceforge.net/DTD/sodipodi-0.dtd"
   xmlns:inkscape="http://www.inkscape.org/namespaces/inkscape"
   version="1.1"
   id="svg4523"
   xml:space="preserve"
   width="225.33333"
   height="109.33333"
   viewBox="0 0 225.33333 109.33333"
   sodipodi:docname="Key-yellow.svg"
   inkscape:version="0.92.2 5c3e80d, 2017-08-06"><metadata
     id="metadata4529"><rdf:RDF><cc:Work
         rdf:about=""><dc:format>image/svg+xml</dc:format><dc:type
           rdf:resource="http://purl.org/dc/dcmitype/StillImage" /><dc:title></dc:title></cc:Work></rdf:RDF></metadata><defs
     id="defs4527" /><sodipodi:namedview
     pagecolor="#ffffff"
     bordercolor="#666666"
     borderopacity="1"
     objecttolerance="10"
     gridtolerance="10"
     guidetolerance="10"
     inkscape:pageopacity="0"
     inkscape:pageshadow="2"
     inkscape:window-width="1366"
     inkscape:window-height="729"
     id="namedview4525"
     showgrid="false"
     inkscape:zoom="4"
     inkscape:cx="105.67947"
     inkscape:cy="57.370719"
     inkscape:window-x="0"
     inkscape:window-y="39"
     inkscape:window-maximized="0"
     inkscape:current-layer="g4531" /><g
     id="g4531"
     inkscape:groupmode="layer"
     inkscape:label="Key-yellow"
     transform="matrix(1.3333333,0,0,-1.3333333,0,109.33333)"><g
       id="g4533"><g
         id="g4535"
         transform="matrix(1,0,0,-1,0,82)"><path
           d="M 38.469,1.109 C 28.77,1.176 19.078,5.305 12.258,12.453 0.043,24.691 -2.379,45.246 5.699,60.5 12.594,74.301 28.23,82.684 43.207,80.566 56.484,78.973 67.68,69.113 72.816,56.699 l 9.508,5.453 c 2.781,1.735 4.344,-0.445 4.344,-2.992 l -0.184,-10.191 10.813,0.25 7.348,6.918 9.566,-9.688 8.75,8.348 h 6.469 l 8.957,-8.973 6.488,5.481 8.254,-0.344 7.16,-6.883 7.711,-7.105 c -1.309,-4.356 -5.035,-7.047 -11.875,-10.055 l -70.156,0.551 -0.426,-7.758 c -0.035,-2.77 -3.359,-3.934 -5.527,-2.492 l -7.899,6.449 C 67.961,14.652 60.582,7.203 51.438,3.602 47.297,1.863 42.875,1.078 38.469,1.109 Z"
           style="fill:#ffdd55;fill-opacity:1;fill-rule:nonzero;stroke:#545454;stroke-width:2.4927721;stroke-linecap:round;stroke-linejoin:round;stroke-miterlimit:4;stroke-dasharray:none;stroke-opacity:1"
           id="path4537"
           inkscape:connector-curvature="0" /></g><g
         id="g4539"
         transform="matrix(1,0,0,-1,0,82)"><path
           d="m 30.023,39.797 c 0.106,4.086 -3.199,8.058 -7.429,8.539 -3.41,0.457 -6.977,-1.356 -8.547,-4.336 -1.84,-3.293 -1.285,-7.727 1.496,-10.367 2.262,-2.246 5.902,-3.106 8.922,-1.906 3.164,1.183 5.414,4.277 5.543,7.562 0.012,0.172 0.015,0.34 0.015,0.508 z"
           style="fill:#ffffff;fill-opacity:1;fill-rule:nonzero;stroke:#545454;stroke-width:1.99421799;stroke-linecap:round;stroke-linejoin:round;stroke-miterlimit:4;stroke-dasharray:none;stroke-opacity:1"
           id="path4541"
           inkscape:connector-curvature="0" /></g><g
         id="g4543"
         transform="matrix(1,0,0,-1,0,82)"><path
           d="m 69.168,39.965 96.125,-1.254 -3.832,3.402 -81.621,1.196 z"
           style="fill:#ffeeaa;fill-opacity:1;fill-rule:nonzero;stroke:#545454;stroke-width:0.997109;stroke-linecap:round;stroke-linejoin:round;stroke-miterlimit:4;stroke-dasharray:none;stroke-opacity:1"
           id="path4545"
           inkscape:connector-curvature="0" /></g></g></g></svg>
